<?xml version="1.0" standalone="no"?>
<!DOCTYPE svg PUBLIC "-//W3C//DTD SVG 20010904//EN"
 "http://www.w3.org/TR/2001/REC-SVG-20010904/DTD/svg10.dtd">
<svg version="1.0" xmlns="http://www.w3.org/2000/svg"
 width="344.000000pt" height="344.000000pt" viewBox="0 0 344.000000 344.000000"
 preserveAspectRatio="xMidYMid meet">
<metadata>
Created by potrace 1.14, written by Peter Selinger 2001-2017
</metadata>
<g transform="translate(0.000000,344.000000) scale(0.100000,-0.100000)"
fill="#000000" stroke="none">
<path d="M1770 3351 c-5 -11 -10 -53 -10 -93 0 -71 -2 -76 -56 -168 -68 -114
-167 -247 -265 -355 -71 -79 -99 -126 -99 -165 0 -16 -32 -36 -159 -99 -88
-43 -183 -84 -213 -91 -71 -17 -88 -33 -88 -84 0 -51 25 -157 45 -197 35 -66
135 -88 239 -53 53 18 61 15 52 -19 -11 -45 -52 -92 -121 -140 -84 -57 -412
-223 -588 -297 -184 -77 -200 -96 -153 -188 67 -131 137 -182 252 -182 85 0
112 11 249 105 118 81 255 165 268 165 3 0 -12 -54 -35 -119 -45 -132 -80
-185 -128 -195 -48 -9 -75 -76 -75 -187 0 -72 3 -91 19 -108 46 -50 156 -9
266 99 82 81 140 193 192 368 18 61 38 112 43 112 6 0 40 -23 76 -50 68 -51
147 -146 212 -255 64 -107 156 -129 186 -44 31 91 2 212 -75 305 -31 39 -34
48 -34 106 0 77 15 186 35 255 17 58 23 61 154 82 96 15 101 25 62 106 -21 43
-30 72 -26 86 8 23 60 49 100 49 24 0 25 -2 18 -42 -5 -24 -8 -113 -7 -198 1
-174 21 -285 73 -394 l29 -61 6 -325 c6 -395 46 -863 82 -948 17 -41 44 -40
55 3 12 46 37 375 55 730 9 176 17 321 18 322 0 1 42 -3 91 -9 112 -13 362 -4
434 15 66 18 85 37 113 112 19 50 22 81 23 191 l0 131 -47 94 c-54 109 -118
180 -221 246 -92 59 -98 74 -62 165 15 39 86 186 157 327 70 140 128 264 128
276 0 30 -35 82 -68 99 -43 22 -144 46 -196 46 -68 0 -96 -16 -249 -139 -76
-61 -140 -111 -142 -111 -2 0 -13 19 -23 43 -48 108 -181 154 -229 80 -15 -22
-19 -57 -23 -193 l-5 -165 -56 -81 c-31 -44 -73 -110 -93 -147 -21 -37 -39
-67 -41 -67 -2 0 -16 5 -32 11 -15 6 -63 14 -106 18 l-78 6 59 70 c33 39 81
86 107 105 53 39 75 75 75 120 0 63 -57 136 -134 171 l-25 12 45 56 c248 307
266 506 61 657 -64 48 -100 55 -117 25z m50 -53 c0 -5 -8 -25 -17 -46 l-17
-37 -4 39 c-2 22 0 51 3 65 6 25 7 25 21 7 8 -11 14 -24 14 -28z m854 -715
c-14 -56 -64 -182 -128 -325 -75 -165 -78 -187 -46 -330 18 -84 40 -141 59
-152 4 -3 23 -1 42 4 64 19 143 -20 200 -98 16 -22 32 -53 35 -70 5 -25 1 -33
-28 -55 -55 -42 -161 -71 -258 -72 -130 0 -126 -5 -135 179 -4 85 -5 246 -3
358 4 189 6 206 28 248 64 123 211 340 230 340 6 0 8 -11 4 -27z m-458 -80
c-11 -11 -17 4 -9 23 7 18 8 18 11 1 2 -10 1 -21 -2 -24z m-2 -424 c13 -68 1
-414 -14 -404 -4 3 -18 26 -31 52 -21 43 -24 62 -24 178 0 100 4 139 17 168
21 45 43 48 52 6z m-473 -281 c3 -37 -34 -186 -70 -281 l-10 -26 -67 31 c-59
27 -72 30 -129 25 l-63 -6 5 62 c6 74 7 75 156 152 106 54 176 71 178 43z"/>
<path d="M1376 3176 c-69 -68 -124 -94 -238 -111 -47 -7 -47 -7 -67 33 -21 41
-38 58 -48 49 -2 -3 -7 -23 -10 -45 -4 -29 -12 -43 -29 -51 -59 -27 -51 -88
39 -289 111 -251 192 -257 311 -22 92 178 167 435 140 477 -19 30 -31 25 -98
-41z"/>
</g>
</svg>
