<?xml version="1.0" standalone="no"?>
<!DOCTYPE svg PUBLIC "-//W3C//DTD SVG 20010904//EN"
 "http://www.w3.org/TR/2001/REC-SVG-20010904/DTD/svg10.dtd">
<svg version="1.0" xmlns="http://www.w3.org/2000/svg"
 width="344.000000pt" height="344.000000pt" viewBox="0 0 344.000000 344.000000"
 preserveAspectRatio="xMidYMid meet">
<metadata>
Created by potrace 1.14, written by Peter Selinger 2001-2017
</metadata>
<g transform="translate(0.000000,344.000000) scale(0.100000,-0.100000)"
fill="#000000" stroke="none">
<path d="M1766 3354 c-3 -9 -6 -48 -6 -86 0 -66 -3 -77 -45 -152 -61 -108
-152 -234 -254 -350 -106 -122 -114 -132 -120 -175 -6 -35 -10 -38 -169 -118
-90 -45 -187 -87 -217 -93 -73 -15 -79 -25 -72 -118 14 -189 85 -261 231 -232
34 7 69 16 79 22 31 16 32 0 5 -56 -23 -46 -39 -62 -105 -106 -94 -61 -420
-226 -593 -299 -139 -58 -170 -81 -170 -123 0 -67 89 -192 164 -231 50 -25
163 -29 216 -7 19 7 96 55 170 106 151 102 229 149 236 142 7 -7 -65 -208 -86
-243 -10 -16 -38 -39 -61 -50 -68 -32 -84 -70 -84 -192 0 -122 10 -139 80
-137 56 1 135 48 215 127 71 69 131 187 185 360 l37 117 31 -17 c59 -34 181
-166 232 -251 62 -106 94 -134 148 -130 60 5 81 39 81 131 0 85 -29 160 -88
224 -30 34 -36 48 -36 84 1 63 17 184 36 261 l16 66 46 11 c26 6 70 13 97 17
95 13 102 27 55 120 -27 53 -28 61 -15 81 8 12 32 27 52 32 59 17 63 15 55
-21 -4 -18 -7 -109 -7 -203 0 -191 15 -277 65 -384 29 -60 30 -69 30 -194 1
-388 51 -1034 91 -1154 13 -41 35 -49 54 -20 18 28 48 388 66 792 l13 270 240
0 c337 0 360 8 405 141 80 243 -13 494 -243 652 -91 62 -99 74 -80 132 8 25
78 171 155 326 76 154 139 292 139 307 0 40 -20 75 -54 96 -83 51 -236 67
-304 32 -20 -11 -95 -66 -167 -124 l-129 -104 -22 47 c-27 57 -79 100 -133
107 -105 14 -121 -15 -121 -226 l0 -150 -65 -96 c-36 -53 -80 -121 -97 -152
-28 -50 -33 -54 -57 -48 -14 4 -61 9 -103 12 -45 3 -78 10 -78 16 0 5 50 59
111 118 69 67 113 119 119 138 18 63 -28 144 -108 192 -20 13 -38 23 -40 25
-2 1 28 41 67 89 38 48 91 129 117 180 42 83 48 103 52 173 4 64 1 87 -16 124
-23 52 -79 118 -136 160 -44 32 -100 38 -110 12z m44 -59 c0 -30 -10 -55 -21
-55 -10 0 -12 34 -3 67 8 28 24 20 24 -12z m840 -772 c-12 -38 -47 -124 -77
-193 -31 -69 -67 -152 -80 -185 l-26 -59 18 -102 c10 -56 27 -126 39 -155 l21
-54 76 0 c68 0 79 -3 113 -29 54 -41 96 -103 96 -142 0 -26 -7 -36 -32 -52
-86 -53 -260 -80 -340 -53 l-35 12 -6 211 c-3 117 -3 278 0 358 5 128 9 151
31 195 60 121 206 334 219 321 3 -3 -4 -36 -17 -73z m-437 -624 c-1 -105 -6
-196 -11 -201 -13 -13 -42 53 -55 128 -13 78 2 220 27 260 33 50 40 17 39
-187z m-477 -104 c7 -18 -5 -72 -46 -207 l-30 -97 -43 24 c-60 33 -115 45
-164 36 l-43 -8 0 61 c0 69 -12 57 139 139 119 65 176 81 187 52z"/>
<path d="M1380 3185 c-30 -31 -73 -64 -95 -75 -36 -17 -184 -54 -190 -48 -2 2
-12 22 -24 46 -27 54 -54 54 -61 1 -3 -25 -15 -45 -37 -64 -39 -32 -41 -57
-14 -138 27 -78 96 -230 127 -278 34 -54 81 -75 128 -55 60 25 149 183 219
390 32 97 41 136 41 196 1 68 -1 75 -19 78 -13 2 -39 -16 -75 -53z"/>
</g>
</svg>
